# xmcd
# Track frame offsets:
# 150
# 16044
# 33276
# 49330
# 63699
# 78446
# 94652
# 111732
# 126635
# 140109
# 154677
# 171489
# 191591
# 210168
#
# Disc length: 3029 seconds
# Revision: 0
# Processed by: cddbd v1.5.2PL0 Copyright (c) Steve Scherf et al.
# Submitted via: VisiTrax 2.11.2.271 - For more info visit www.synapsa.com
#
DISCID=cb0bd30e
DTITLE=Lynne. Karen - Second Wind
DYEAR=2003
DGENRE=Country
TTITLE0=This Man I Love
TTITLE1=When She Smiled At Him
TTITLE2=Till You Loved Me
TTITLE3=I'll Just Pretend
TTITLE4=Heart Of A Heartache
TTITLE5=Hopelessly Yours
TTITLE6=I Found You
TTITLE7=Try Telling My Heart
TTITLE8=Angel
TTITLE9=Second Wind
TTITLE10=Outback's Been Getting The Rain. The
TTITLE11=When You Put It Like That
TTITLE12=Wall Of Tears
TTITLE13=You Just Don't Getb It
EXTD=
EXTT0=
EXTT1=
EXTT2=
EXTT3=
EXTT4=
EXTT5=
EXTT6=
EXTT7=
EXTT8=
EXTT9=
EXTT10=
EXTT11=
EXTT12=
EXTT13=
PLAYORDER=
